<?xml version="1.0" encoding="utf-8"?>
<!-- Generator: Adobe Illustrator 15.1.0, SVG Export Plug-In . SVG Version: 6.00 Build 0)  -->
<!DOCTYPE svg PUBLIC "-//W3C//DTD SVG 1.1//EN" "http://www.w3.org/Graphics/SVG/1.1/DTD/svg11.dtd">
<svg version="1.1" xmlns="http://www.w3.org/2000/svg" xmlns:xlink="http://www.w3.org/1999/xlink" x="0px" y="0px" width="1000px"
	 height="1000px" viewBox="0 0 1000 1000" enable-background="new 0 0 1000 1000" xml:space="preserve">
<g id="main">
</g>
<g id="grid" display="none">
	<g display="inline">
	</g>
</g>
<g id="cube_x5F_points" display="none">
	
		<line display="inline" fill="none" stroke="#000000" stroke-miterlimit="10" x1="517.194" y1="751.936" x2="517.046" y2="141.608"/>
	<line display="inline" fill="none" stroke="#000000" stroke-miterlimit="10" x1="517.041" y1="500.374" x2="47.707" y2="771.272"/>
	
		<line display="inline" fill="none" stroke="#000000" stroke-miterlimit="10" x1="517.124" y1="500.373" x2="890.291" y2="715.763"/>
	
		<line display="inline" fill="none" stroke="#000000" stroke-miterlimit="10" x1="299.268" y1="626.105" x2="584.193" y2="790.607"/>
	
		<line display="inline" fill="none" stroke="#000000" stroke-miterlimit="10" x1="399.738" y1="819.684" x2="784.975" y2="597.104"/>
	
		<line display="inline" fill="none" stroke="#000000" stroke-miterlimit="10" x1="299.268" y1="626.105" x2="299.268" y2="374.594"/>
	
		<line display="inline" fill="none" stroke="#000000" stroke-miterlimit="10" x1="299.268" y1="374.594" x2="517.071" y2="248.684"/>
	
		<line display="inline" fill="none" stroke="#000000" stroke-miterlimit="10" x1="299.268" y1="374.594" x2="517.125" y2="500.374"/>
	<line display="inline" fill="none" stroke="#000000" stroke-miterlimit="10" x1="517.041" y1="500.374" x2="735.026" y2="374.52"/>
	<line display="inline" fill="none" stroke="#000000" stroke-miterlimit="10" x1="734.926" y1="626.121" x2="735.026" y2="374.52"/>
	<line display="inline" fill="none" stroke="#000000" stroke-miterlimit="10" x1="517.071" y1="248.684" x2="735.026" y2="374.52"/>
</g>
<g id="arc_x5F_point" display="none">
	<path display="inline" fill="none" stroke="#000000" stroke-miterlimit="10" d="M600.396,160.342
		c128.512-5.421,236.888,94.182,242.31,222.694"/>
</g>
<g id="cube_x5F_paint">
	<g id="XMLID_2_">
		<g>
			<polygon fill="#1C75BC" points="517.04,500.37 517.19,751.94 299.27,626.11 299.27,374.59 			"/>
		</g>
		<g>
			<polygon fill="none" stroke="#00AEEF" stroke-miterlimit="10" points="299.27,374.59 299.27,626.11 517.19,751.94 517.04,500.37 
							"/>
		</g>
	</g>
	<polyline fill="#00AEEF" stroke="#00AEEF" stroke-miterlimit="10" points="517.04,500.37 735.026,374.52 734.926,626.121 
		517.19,751.94 	"/>
	<polyline fill="#32C5F4" stroke="#00AEEF" stroke-miterlimit="10" points="299.27,374.59 517.071,248.684 735.026,374.52 
		517.04,500.37 	"/>
	<path fill="#00AEEF" stroke="#00AEEF" stroke-miterlimit="10" d="M399.738,819.684"/>
	<path fill="#00AEEF" stroke="#00AEEF" stroke-miterlimit="10" d="M515.68,752.695"/>
	<path fill="#00AEEF" stroke="#00AEEF" stroke-miterlimit="10" d="M584.193,790.607"/>
	<polyline fill="none" stroke="#00AEEF" stroke-width="2" stroke-miterlimit="10" points="584.193,790.607 517.19,751.94 
		399.738,819.684 517.19,751.94 	"/>
</g>
<g id="outlines_x5F_paint">
	<path fill="none" stroke="#2BB673" stroke-miterlimit="10" d="M842.706,383.036"/>
	<path fill="none" stroke="#2BB673" stroke-miterlimit="10" d="M600.396,160.342"/>
	<path fill="none" stroke="#2BB673" stroke-width="2" stroke-miterlimit="10" d="M600.396,160.342
		c0,0,208.016-11.271,242.31,222.694"/>
	<path display="none" fill="#2BB673" stroke="#27AAE1" stroke-width="2" stroke-miterlimit="10" d="M517.071,248.684l0.127-107.75
		L517.071,248.684z"/>
	<path fill="none" stroke="#27AAE1" stroke-miterlimit="10" d="M734.926,626.121"/>
	<polyline fill="none" stroke="#27AAE1" stroke-width="2" stroke-miterlimit="10" points="784.975,597.104 734.926,626.121 
		890.291,715.763 	"/>
</g>
<g id="arrows">
	<g>
		<g>
			
				<line fill="none" stroke="#00AEEF" stroke-width="2" stroke-miterlimit="10" x1="517.22" y1="153.797" x2="517.107" y2="249.477"/>
			<g>
				<path fill="#00AEEF" d="M517.234,141.727c-2.114,5.677-5.718,12.72-9.532,17.083l9.517-3.429l9.505,3.452
					C522.921,154.46,519.333,147.409,517.234,141.727z"/>
			</g>
		</g>
	</g>
	<g>
		<g>
			<line fill="none" stroke="#00AEEF" stroke-width="2" stroke-miterlimit="10" x1="299.27" y1="626.11" x2="47.707" y2="771.272"/>
			<g>
				<path fill="#00AEEF" d="M37.252,777.305c3.866-4.663,8.172-11.3,10.052-16.782l1.774,9.958l7.733,6.518
					C51.125,775.883,43.224,776.29,37.252,777.305z"/>
			</g>
		</g>
	</g>
	<g>
		<g>
			
				<line fill="none" stroke="#00AEEF" stroke-width="2" stroke-miterlimit="10" x1="734.926" y1="626.121" x2="887.704" y2="714.27"/>
			<g>
				<path fill="#00AEEF" d="M898.159,720.302c-5.973-1.013-13.874-1.42-19.561-0.305l7.733-6.52l1.772-9.956
					C889.984,709.003,894.292,715.64,898.159,720.302z"/>
			</g>
		</g>
	</g>
	<line fill="none" stroke="#00AEEF" stroke-width="2" stroke-miterlimit="10" x1="515.68" y1="752.812" x2="399.738" y2="819.684"/>
</g>
<g id="xyz">
	<text transform="matrix(1 0 0 1 532 244.9756)" font-family="'ArialMT'" font-size="30" letter-spacing="2">z</text>
	<text transform="matrix(1 0 0 1 287.7686 665.0273)" font-family="'ArialMT'" font-size="30" letter-spacing="2">y</text>
	<text transform="matrix(1 0 0 1 732.9258 659.9805)" font-family="'ArialMT'" font-size="30" letter-spacing="2">x</text>
</g>
</svg>
